<?xml version="1.0" encoding="utf-8"?>
<!-- Generator: Adobe Illustrator 16.0.4, SVG Export Plug-In . SVG Version: 6.00 Build 0)  -->
<!DOCTYPE svg PUBLIC "-//W3C//DTD SVG 1.1//EN" "http://www.w3.org/Graphics/SVG/1.1/DTD/svg11.dtd">
<svg version="1.1"
	 id="svg2" sodipodi:docname="AND ANSI.svg" inkscape:version="0.46" sodipodi:version="0.32" inkscape:output_extension="org.inkscape.output.svg.inkscape" xmlns:dc="http://purl.org/dc/elements/1.1/" xmlns:cc="http://creativecommons.org/ns#" xmlns:rdf="http://www.w3.org/1999/02/22-rdf-syntax-ns#" xmlns:svg="http://www.w3.org/2000/svg" xmlns:sodipodi="http://sodipodi.sourceforge.net/DTD/sodipodi-0.dtd" xmlns:inkscape="http://www.inkscape.org/namespaces/inkscape"
	 xmlns="http://www.w3.org/2000/svg" xmlns:xlink="http://www.w3.org/1999/xlink" x="0px" y="0px" width="2002px" height="1072px"
	 viewBox="-908.5 -571.5 2002 1072" enable-background="new -908.5 -571.5 2002 1072" xml:space="preserve">
<defs>
	
	
		<inkscape:perspective  inkscape:persp3d-origin="25 : 10 : 1" id="perspective2714" inkscape:vp_z="50 : 15 : 1" inkscape:vp_y="0 : 1000 : 0" inkscape:vp_x="0 : 15 : 1" sodipodi:type="inkscape:persp3d">
		</inkscape:perspective>
	
		<inkscape:perspective  inkscape:persp3d-origin="0.5 : 0.33333333 : 1" id="perspective2806" inkscape:vp_z="1 : 0.5 : 1" inkscape:vp_y="0 : 1000 : 0" inkscape:vp_x="0 : 0.5 : 1" sodipodi:type="inkscape:persp3d">
		</inkscape:perspective>
	
		<inkscape:perspective  inkscape:persp3d-origin="372.04724 : 350.78739 : 1" id="perspective2819" inkscape:vp_z="744.09448 : 526.18109 : 1" inkscape:vp_y="0 : 1000 : 0" inkscape:vp_x="0 : 526.18109 : 1" sodipodi:type="inkscape:persp3d">
		</inkscape:perspective>
	
		<inkscape:perspective  inkscape:persp3d-origin="75 : 40 : 1" id="perspective2777" inkscape:vp_z="150 : 60 : 1" inkscape:vp_y="0 : 1000 : 0" inkscape:vp_x="0 : 60 : 1" sodipodi:type="inkscape:persp3d">
		</inkscape:perspective>
	
		<inkscape:perspective  inkscape:persp3d-origin="50 : 33.333333 : 1" id="perspective3275" inkscape:vp_z="100 : 50 : 1" inkscape:vp_y="0 : 1000 : 0" inkscape:vp_x="0 : 50 : 1" sodipodi:type="inkscape:persp3d">
		</inkscape:perspective>
	
		<inkscape:perspective  inkscape:persp3d-origin="32 : 21.333333 : 1" id="perspective5533" inkscape:vp_z="64 : 32 : 1" inkscape:vp_y="0 : 1000 : 0" inkscape:vp_x="0 : 32 : 1" sodipodi:type="inkscape:persp3d">
		</inkscape:perspective>
</defs>
<sodipodi:namedview  inkscape:snap-bbox="true" inkscape:window-y="0" inkscape:window-x="33" inkscape:window-height="874" inkscape:window-width="1399" inkscape:grid-points="true" inkscape:grid-bbox="true" inkscape:current-layer="layer1" inkscape:document-units="px" inkscape:pageshadow="2" inkscape:pageopacity="0.0" gridtolerance="10000" showgrid="true" inkscape:cy="25.326899" inkscape:cx="56.698348" inkscape:zoom="8" borderopacity="1.0" bordercolor="#666666" pagecolor="#ffffff" id="base">
	
		<inkscape:grid  color="#0000ff" type="xygrid" enabled="true" visible="true" empspacing="5" empopacity="0.4" opacity="0.2" empcolor="#0000ff" spacingy="1px" spacingx="1px" originy="0px" originx="0px" id="GridFromPre046Settings">
		</inkscape:grid>
</sodipodi:namedview>
<path id="path3059" sodipodi:nodetypes="cc" fill="none" stroke="#000000" stroke-width="20" d="M302.006-69.587
	c292.396,0,365.494,0,365.494,0"/>
<path id="path3061" fill="none" stroke="#000000" stroke-width="20" d="M-54-147.84h-314.094"/>
<path id="path3944" fill="none" stroke="#000000" stroke-width="20" d="M13.061,51.088h-378.593"/>
<path id="path2884" sodipodi:nodetypes="ccccccsccccsssssccc" d="M5.662-275.656v14.722v382.702v14.714h10.87h144.934
	c85.733,0,152.185-92.722,152.185-206.061c0-113.34-66.451-206.077-152.185-206.077c0,0,0,0-144.934,0H5.662z M27.403-246.22
	c60.703,0,99.386,0,115.948,0c9.055,0,13.585,0,15.861,0c1.116,0,1.753,0,2.026,0c0.159,0,0.182,0,0.228,0
	c74.26,0,126.823,78.726,126.823,176.641c0,97.921-56.184,176.632-130.443,176.632H27.403V-246.22z"/>
<g>
	<g>
		<text transform="matrix(0.7904 0 0 1 390.8115 -110.0391)" font-family="'MyriadPro-Regular'" font-size="130.3469">C</text>
		<text transform="matrix(1.0026 0 0 1 454.1816 -91.9624)" font-family="'MyriadPro-Regular'" font-size="64.4123">0</text>
	</g>
	<g>
		<text transform="matrix(0.7904 0 0 1 515.3232 -110.0391)" font-family="'MyriadPro-Regular'" font-size="130.3469">C</text>
		<text transform="matrix(1.0026 0 0 1 578.6934 -91.9624)" font-family="'MyriadPro-Regular'" font-size="64.4123">1</text>
	</g>
</g>
<g>
	<g>
		<g>
			<text transform="matrix(0.7904 0 0 1 -300.0049 -181.0391)" font-family="'MyriadPro-Regular'" font-size="130.3469">A</text>
			<text transform="matrix(1.0026 0 0 1 -236.6348 -162.9624)" font-family="'MyriadPro-Regular'" font-size="64.4123">0</text>
		</g>
		<g>
			<text transform="matrix(0.7904 0 0 1 -175.4932 -181.0391)" font-family="'MyriadPro-Regular'" font-size="130.3469">A</text>
			<text transform="matrix(1.0026 0 0 1 -112.123 -162.9624)" font-family="'MyriadPro-Regular'" font-size="64.4123">1</text>
		</g>
	</g>
	<text transform="matrix(1 0 0 1 -277.0723 -275.6562)" font-family="'MyriadPro-Regular'" font-size="32">0</text>
	<text transform="matrix(1 0 0 1 -152.0825 -274.6562)" font-family="'MyriadPro-Regular'" font-size="32">1</text>
</g>
<g>
	<g>
		<g>
			<text transform="matrix(0.7904 0 0 1 -300.0049 14.9609)" font-family="'MyriadPro-Regular'" font-size="130.3469">B</text>
			<text transform="matrix(1.0026 0 0 1 -236.6348 33.0371)" font-family="'MyriadPro-Regular'" font-size="64.4123">0</text>
		</g>
		<g>
			<text transform="matrix(0.7904 0 0 1 -175.4932 14.9609)" font-family="'MyriadPro-Regular'" font-size="130.3469">B</text>
			<text transform="matrix(1.0026 0 0 1 -112.123 33.0371)" font-family="'MyriadPro-Regular'" font-size="64.4123">1</text>
		</g>
	</g>
	<text transform="matrix(1 0 0 1 -159.0723 -84.6562)" font-family="'MyriadPro-Regular'" font-size="32">0</text>
	<text transform="matrix(1 0 0 1 -284.0825 -84.6562)" font-family="'MyriadPro-Regular'" font-size="32">1</text>
</g>
<text transform="matrix(1 0 0 1 420.4902 -207.6562)" font-family="'MyriadPro-Regular'" font-size="32">0</text>
<text transform="matrix(1 0 0 1 546.4902 -207.6562)" font-family="'MyriadPro-Regular'" font-size="32">1</text>
<text transform="matrix(1 0 0 1 -194.5 -181.0391)" font-family="'MyriadPro-Regular'" font-size="70">,</text>
<text transform="matrix(1 0 0 1 -194.5 19.9609)" font-family="'MyriadPro-Regular'" font-size="70">,</text>
<text transform="matrix(1 0 0 1 494.5 -110.0391)" font-family="'MyriadPro-Regular'" font-size="70">,</text>
<path id="path2671" sodipodi:type="arc" sodipodi:ry="4" sodipodi:cy="25" sodipodi:cx="76" sodipodi:rx="4" fill="none" stroke="#000000" stroke-width="12" d="
	M6-147.84c0,16.568-13.432,30-30,30c-16.567,0-30-13.432-30-30s13.433-30,30-30C-7.432-177.84,6-164.408,6-147.84z"/>
</svg>
